<svg width="512" height="512" viewBox="0 0 512 512" fill="none" xmlns="http://www.w3.org/2000/svg">
  <defs>
    <linearGradient id="rcfBg" x1="64" y1="64" x2="448" y2="448" gradientUnits="userSpaceOnUse">
      <stop stop-color="#EEF2F8"/>
      <stop offset="1" stop-color="#C9D1DE"/>
    </linearGradient>

    <linearGradient id="rcfGear" x1="150" y1="120" x2="372" y2="392" gradientUnits="userSpaceOnUse">
      <stop stop-color="#4A8DFF"/>
      <stop offset="1" stop-color="#2D63D6"/>
    </linearGradient>

    <linearGradient id="rcfAccent" x1="180" y1="180" x2="350" y2="350" gradientUnits="userSpaceOnUse">
      <stop stop-color="#FFB15E"/>
      <stop offset="1" stop-color="#FF8A2A"/>
    </linearGradient>

    <filter id="shadow" x="78" y="86" width="356" height="356" filterUnits="userSpaceOnUse" color-interpolation-filters="sRGB">
      <feFlood flood-opacity="0" result="BackgroundImageFix"/>
      <feColorMatrix in="SourceAlpha" type="matrix" values="0 0 0 0 0 0 0 0 0 0 0 0 0 0 0 0 0 0 127 0" result="hardAlpha"/>
      <feOffset dy="16"/>
      <feGaussianBlur stdDeviation="16"/>
      <feColorMatrix type="matrix" values="0 0 0 0 0.12 0 0 0 0 0.19 0 0 0 0 0.33 0 0 0 0.20 0"/>
      <feBlend mode="normal" in2="BackgroundImageFix" result="effect1_dropShadow_1_1"/>
      <feBlend mode="normal" in="SourceGraphic" in2="effect1_dropShadow_1_1" result="shape"/>
    </filter>
  </defs>

  <rect x="32" y="32" width="448" height="448" rx="96" fill="url(#rcfBg)"/>

  <circle cx="256" cy="256" r="154" fill="white" fill-opacity="0.18"/>
  <circle cx="256" cy="256" r="132" stroke="white" stroke-opacity="0.28" stroke-width="18"/>

  <g filter="url(#shadow)">
    <path d="M256 122C269.5 122 280.5 132.8 280.5 146.1V157.4C294.8 160.4 307.9 165.7 319.7 173L327.7 165C337.1 155.6 352.4 155.6 361.8 165L377 180.2C386.4 189.6 386.4 204.9 377 214.3L369 222.3C376.3 234.1 381.6 247.2 384.6 261.5H395.9C409.2 261.5 420 272.5 420 286C420 299.5 409.2 310.5 395.9 310.5H384.6C381.6 324.8 376.3 337.9 369 349.7L377 357.7C386.4 367.1 386.4 382.4 377 391.8L361.8 407C352.4 416.4 337.1 416.4 327.7 407L319.7 399C307.9 406.3 294.8 411.6 280.5 414.6V425.9C280.5 439.2 269.5 450 256 450C242.5 450 231.5 439.2 231.5 425.9V414.6C217.2 411.6 204.1 406.3 192.3 399L184.3 407C174.9 416.4 159.6 416.4 150.2 407L135 391.8C125.6 382.4 125.6 367.1 135 357.7L143 349.7C135.7 337.9 130.4 324.8 127.4 310.5H116.1C102.8 310.5 92 299.5 92 286C92 272.5 102.8 261.5 116.1 261.5H127.4C130.4 247.2 135.7 234.1 143 222.3L135 214.3C125.6 204.9 125.6 189.6 135 180.2L150.2 165C159.6 155.6 174.9 155.6 184.3 165L192.3 173C204.1 165.7 217.2 160.4 231.5 157.4V146.1C231.5 132.8 242.5 122 256 122Z" fill="url(#rcfGear)"/>
    <circle cx="256" cy="286" r="88" fill="#EFF4FB"/>
    <circle cx="256" cy="286" r="56" fill="url(#rcfAccent)"/>
  </g>

  <path d="M205 208H263.5C290.8 208 309 223.7 309 247.8C309 263.5 300.7 275.1 287.5 280.9C304.4 286.1 315 299.5 315 318.4C315 346.4 294 364 260 364H205V208ZM254.6 269.1C271 269.1 281.2 260.8 281.2 247.7C281.2 235.3 271.8 227.7 255.3 227.7H231.4V269.1H254.6ZM259.1 344.1C278.4 344.1 289.9 335.2 289.9 320.1C289.9 304.8 277.9 296.5 257.7 296.5H231.4V344.1H259.1Z" fill="#1F2A44"/>

  <rect x="332" y="150" width="58" height="16" rx="8" transform="rotate(25 332 150)" fill="white" fill-opacity="0.44"/>
  <rect x="126" y="352" width="72" height="16" rx="8" transform="rotate(-18 126 352)" fill="white" fill-opacity="0.24"/>
</svg>
